<?xml version="1.0" encoding="UTF-8"?>
<svg id="Layer_1" data-name="Layer 1" xmlns="http://www.w3.org/2000/svg" viewBox="0 0 1064.81 364.44">
  <defs>
    <style>
      .cls-1 {
        fill: #fff;
      }

      .cls-2 {
        fill: #23a8e0;
      }
    </style>
  </defs>
  <g>
    <path class="cls-2" d="m102.25,277.34c-17.82-62.21,17.75-102.59,21.81-106.92l3.07,2.94h0c-3.89,4.15-38,42.85-20.83,102.83l-4.05,1.16Z"/>
    <path class="cls-2" d="m222.85,239.33c-11.64,0-20.16-1.97-23.51-2.89l.53-4.24.59.18c8.83,2.44,55.08,12.41,98.21-30.25l3.35,2.62c-28.5,28.18-58.81,34.58-79.17,34.58Z"/>
    <path class="cls-1" d="m64.5,163.68l-3.18-2.77c6.13-7.52,39.6-43.97,101.75-33.85l-.83,4.13c-59.87-9.76-91.78,25.17-97.57,32.28l-.17.21Z"/>
    <circle class="cls-2" cx="181.1" cy="231.95" r="19.03"/>
    <circle class="cls-2" cx="138.65" cy="158.21" r="19.03"/>
    <circle class="cls-1" cx="181.1" cy="14.22" r="14.22"/>
    <circle class="cls-1" cx="181.1" cy="350.22" r="14.22"/>
    <circle class="cls-1" cx="61.97" cy="301.76" r="14.22"/>
    <circle class="cls-1" cx="61.97" cy="63.61" r="14.22"/>
    <circle class="cls-2" cx="26.15" cy="115.94" r="14.22"/>
    <circle class="cls-2" cx="26.15" cy="244.94" r="14.22"/>
    <circle class="cls-2" cx="116.13" cy="336" r="14.22"/>
    <circle class="cls-2" cx="244.4" cy="338.65" r="14.22"/>
    <circle class="cls-2" cx="337.54" cy="249.15" r="14.22"/>
    <circle class="cls-2" cx="114.85" cy="27.84" r="14.22"/>
    <circle class="cls-2" cx="244.47" cy="25.36" r="14.22"/>
    <circle class="cls-2" cx="338.02" cy="119.89" r="14.22"/>
    <circle class="cls-1" cx="350.22" cy="181.86" r="14.22"/>
    <circle class="cls-1" cx="299.96" cy="301.76" r="14.22"/>
    <circle class="cls-1" cx="14.22" cy="181.86" r="14.22"/>
    <g>
      <path class="cls-2" d="m217.05,141.25l-.08-.25c-2.67-9.01-18.96-54.67-77.97-68.91l.99-4.1c61.26,14.78,78.24,62.41,81.02,71.81l-3.97,1.45Z"/>
      <circle class="cls-2" cx="224.82" cy="158.35" r="19.03"/>
      <circle class="cls-2" cx="128.69" cy="71.77" r="14.22"/>
    </g>
    <circle class="cls-2" cx="113" cy="285.47" r="14.22"/>
    <circle class="cls-2" cx="305.98" cy="191.2" r="14.22"/>
    <circle class="cls-1" cx="57.3" cy="172.17" r="14.22"/>
    <circle class="cls-1" cx="299.96" cy="63.61" r="14.22"/>
    <circle class="cls-2" cx="146.52" cy="107.75" r="12.14"/>
    <circle class="cls-2" cx="299.96" cy="135.02" r="10.75"/>
    <circle class="cls-2" cx="271.13" cy="272.04" r="10.75"/>
    <circle class="cls-2" cx="181.1" cy="309.85" r="10.75"/>
    <circle class="cls-2" cx="63.76" cy="229.07" r="10.75"/>
    <circle class="cls-2" cx="91.99" cy="92.18" r="10.75"/>
    <circle class="cls-2" cx="181.98" cy="54.61" r="10.75"/>
    <circle class="cls-2" cx="134.38" cy="249.15" r="12.14"/>
    <circle class="cls-2" cx="263.82" cy="187.98" r="12.14"/>
    <circle class="cls-1" cx="98.35" cy="175.84" r="12.14"/>
    <circle class="cls-1" cx="181.1" cy="132.88" r="19.03"/>
    <path class="cls-2" d="m153.13,103.27l-.29-4.21c1.31-.09,31.85-2.17,43.47.01l-.45,4.15c-11.09-2.08-42.42.03-42.74.05Z"/>
    <path class="cls-2" d="m244.8,236.23l-3.26-2.67c.19-.23,18.84-23.1,20.66-34.61l4.17.66c-2,12.64-20.77,35.65-21.56,36.63Z"/>
    <path class="cls-1" d="m100.39,165.93l-4.08-1.05c3.03-11.81,21.26-35.04,22.04-36.03l3.55,2.33c-.18.23-18.69,23.8-21.5,34.75Z"/>
    <g>
      <path class="cls-1" d="m238.23,195.55l-3.18-2.78.19-.19c6.46-6.49,37.89-41.86,21.96-100.39l3.99-1.6c16.53,60.77-16.22,98.18-22.97,104.97Z"/>
      <circle class="cls-1" cx="224.82" cy="208.02" r="19.03"/>
      <circle class="cls-1" cx="228.3" cy="114.75" r="12.14"/>
      <circle class="cls-1" cx="251.13" cy="80.78" r="14.22"/>
      <path class="cls-1" d="m257.07,155.73c-.12-.27-12.27-27.26-20.67-34.83l2.82-3.13c9.05,8.17,21.18,35.1,21.69,36.24l-3.85,1.72Z"/>
    </g>
    <g>
      <path class="cls-1" d="m223.07,298.37c-60.53-15.62-77.39-64.6-79.49-72.18l4.14-1.54.07.83c2.44,8.83,17.59,53.65,76.33,68.81l-1.05,4.08Z"/>
      <circle class="cls-1" cx="139.06" cy="208.02" r="19.03"/>
      <circle class="cls-1" cx="236.26" cy="294.22" r="14.22"/>
      <circle class="cls-1" cx="216.71" cy="257.08" r="12.14"/>
      <path class="cls-1" d="m184.72,266.87c-8.57,0-15.77-.47-16.37-.51l.28-4.21c.3.02,29.83,1.93,40.45-1.93l1.44,3.96c-5.92,2.15-16.64,2.69-25.8,2.69Z"/>
    </g>
    <path class="cls-2" d="m126.8,246.25c-10.89-6.72-24.71-32.66-25.3-33.78l3.54-2.22c.14.26,14.05,26.29,23.97,32.41l-2.21,3.59Z"/>
  </g>
  <g>
    <path class="cls-1" d="m460.37,158.07h-24.39c.66-14.17,5.11-25.33,13.36-33.45,8.25-8.13,18.84-12.2,31.76-12.2,7.98,0,15.02,1.68,21.13,5.05,6.1,3.36,10.99,8.22,14.65,14.56,3.66,6.34,5.49,12.79,5.49,19.34,0,7.8-2.22,16.2-6.66,25.19-4.44,8.99-12.56,19.62-24.35,31.89l-14.75,15.55h46.83v23.14h-91.03v-11.97l40.65-41.45c9.83-9.95,16.36-17.94,19.61-23.99,3.24-6.04,4.87-11.51,4.87-16.39s-1.68-9.25-5.05-12.55c-3.37-3.3-7.7-4.96-13-4.96s-9.83,1.99-13.4,5.98c-3.57,3.99-5.48,9.41-5.72,16.26Z"/>
    <path class="cls-1" d="m610.58,175.89c5.96,3.82,10.56,8.72,13.8,14.71,3.24,5.99,4.87,12.47,4.87,19.44,0,7.57-1.89,14.57-5.67,21.01-3.78,6.44-8.86,11.28-15.23,14.52-6.37,3.25-14.5,4.87-24.39,4.87-10.6,0-19.03-1.56-25.28-4.69-6.25-3.13-11.26-7.87-15.01-14.21-3.75-6.35-5.63-13.52-5.63-21.5,0-6.91,1.5-13.22,4.51-18.91,3.01-5.69,7.52-10.78,13.54-15.24-3.93-3.99-6.9-8.23-8.89-12.72-2-4.49-2.99-9.24-2.99-14.24,0-6.84,1.65-13.08,4.96-18.7,3.3-5.62,7.93-10,13.89-13.12,5.96-3.12,12.83-4.69,20.64-4.69s14.44,1.58,20.28,4.73c5.84,3.15,10.44,7.63,13.8,13.43,3.36,5.8,5.05,12.04,5.05,18.7,0,4.7-.88,9.06-2.64,13.08-1.76,4.02-4.96,8.52-9.6,13.52Zm-26.71,13.36c-6.02,0-11.08,1.83-15.19,5.49-4.11,3.66-6.16,8.03-6.16,13.09s1.93,9.78,5.81,13.45c3.87,3.66,8.96,5.49,15.28,5.49s11.45-1.71,15.23-5.14c3.78-3.43,5.67-7.85,5.67-13.27s-1.97-9.96-5.9-13.63c-3.93-3.66-8.84-5.49-14.74-5.49Zm-.98-52.71c-4.11,0-7.49,1.35-10.14,4.05-2.65,2.7-3.98,6.16-3.98,10.38s1.4,7.75,4.2,10.6c2.8,2.85,6.25,4.27,10.36,4.27s7.7-1.4,10.41-4.19,4.06-6.41,4.06-10.87c0-4.21-1.37-7.64-4.11-10.29-2.74-2.64-6.34-3.96-10.81-3.96Z"/>
    <path class="cls-1" d="m638.39,115.73h72.63v24.66h-23.94v106.76h-25.37v-106.76h-23.32v-24.66Z"/>
    <path class="cls-1" d="m729.73,115.73h71.74v24.48h-46.9v23.76h46.9v24.03h-46.9v34.57h46.9v24.57h-71.74V115.73Z"/>
    <path class="cls-1" d="m947.03,138.82l-17.49,16.68c-11.9-12.58-25.29-18.87-40.17-18.87-12.56,0-23.13,4.29-31.73,12.88-8.6,8.58-12.9,19.16-12.9,31.75,0,8.76,1.9,16.54,5.71,23.34,3.81,6.79,9.19,12.13,16.16,16,6.96,3.87,14.7,5.81,23.21,5.81,7.26,0,13.89-1.35,19.9-4.07,6.01-2.71,12.62-7.64,19.82-14.8l16.96,17.69c-9.71,9.47-18.88,16.05-27.52,19.71-8.63,3.66-18.49,5.5-29.57,5.5-20.43,0-37.15-6.48-50.16-19.43-13.01-12.95-19.52-29.56-19.52-49.81,0-13.1,2.96-24.75,8.89-34.93,5.93-10.19,14.41-18.37,25.46-24.57,11.04-6.19,22.94-9.29,35.69-9.29,10.84,0,21.28,2.29,31.31,6.87,10.04,4.58,18.69,11.09,25.95,19.53Z"/>
    <path class="cls-1" d="m970.29,115.73h25.37v49.58h43.87v-49.58h25.28v131.41h-25.28v-57.62h-43.87v57.62h-25.37V115.73Z"/>
  </g>
</svg>