<svg width="47" height="78" viewBox="0 0 47 78" fill="none" xmlns="http://www.w3.org/2000/svg">
<path d="M15.4236 54.1001V53.1459C15.4479 48.7172 15.8611 45.1939 16.6633 42.5758C17.4898 39.9578 18.6566 37.8536 20.1637 36.2632C21.6708 34.6483 23.5061 33.168 25.6695 31.8223C27.1523 30.8925 28.4771 29.8771 29.6439 28.776C30.835 27.6505 31.7709 26.4027 32.4515 25.0325C33.1321 23.6378 33.4725 22.0841 33.4725 20.3714C33.4725 18.4384 33.0228 16.7624 32.1234 15.3432C31.2239 13.9241 30.0085 12.8231 28.4771 12.0401C26.97 11.2571 25.2806 10.8656 23.4088 10.8656C21.683 10.8656 20.0422 11.2449 18.4864 12.0034C16.955 12.7374 15.6788 13.8629 14.6579 15.3799C13.6612 16.8725 13.1021 18.7687 12.9806 21.0687H0C0.121541 16.4198 1.23972 12.5294 3.35454 9.39757C5.49366 6.2657 8.31342 3.91679 11.8138 2.35085C15.3385 0.78492 19.2278 0.00195312 23.4818 0.00195312C28.1246 0.00195312 32.2084 0.821623 35.7331 2.46096C39.2821 4.1003 42.0411 6.43697 44.0101 9.47097C46.0034 12.4805 47 16.0528 47 20.1878C47 22.9772 46.5503 25.4729 45.6509 27.675C44.7758 29.8771 43.5239 31.8345 41.8953 33.5472C40.2666 35.26 38.3341 36.7892 36.0978 38.1349C34.1288 39.3583 32.5123 40.6306 31.2483 41.9519C30.0085 43.2732 29.0848 44.8269 28.4771 46.613C27.8937 48.3747 27.5899 50.5523 27.5656 53.1459V54.1001H15.4236ZM21.768 77.002C19.5803 77.002 17.6964 76.219 16.1164 74.6531C14.5363 73.0871 13.7463 71.1786 13.7463 68.9276C13.7463 66.7255 14.5363 64.8415 16.1164 63.2755C17.6964 61.7096 19.5803 60.9266 21.768 60.9266C23.9315 60.9266 25.8032 61.7096 27.3832 63.2755C28.9876 64.8415 29.7898 66.7255 29.7898 68.9276C29.7898 70.4201 29.413 71.7781 28.6594 73.0015C27.9302 74.2249 26.9578 75.2036 25.7424 75.9376C24.5513 76.6472 23.2265 77.002 21.768 77.002Z" fill="#001C66"/>
</svg>
